<mxfile host="65bd71144e">
    <diagram id="nqPb0P5RJXoR0BzKz8bC" name="問題①">
        <mxGraphModel dx="373" dy="547" grid="1" gridSize="10" guides="1" tooltips="1" connect="1" arrows="1" fold="1" page="1" pageScale="1" pageWidth="827" pageHeight="1169" math="0" shadow="0">
            <root>
                <mxCell id="0"/>
                <mxCell id="1" parent="0"/>
                <mxCell id="2" value="" style="rounded=0;whiteSpace=wrap;html=1;" vertex="1" parent="1">
                    <mxGeometry x="95" y="70" width="200" height="400" as="geometry"/>
                </mxCell>
                <mxCell id="3" value="商品を探す" style="ellipse;whiteSpace=wrap;html=1;" vertex="1" parent="1">
                    <mxGeometry x="140" y="110" width="120" height="50" as="geometry"/>
                </mxCell>
                <mxCell id="4" value="商品を見る" style="ellipse;whiteSpace=wrap;html=1;" vertex="1" parent="1">
                    <mxGeometry x="140" y="170" width="120" height="50" as="geometry"/>
                </mxCell>
                <mxCell id="6" value="商品を買う" style="ellipse;whiteSpace=wrap;html=1;" vertex="1" parent="1">
                    <mxGeometry x="140" y="230" width="120" height="50" as="geometry"/>
                </mxCell>
                <mxCell id="7" value="商品を登録する" style="ellipse;whiteSpace=wrap;html=1;" vertex="1" parent="1">
                    <mxGeometry x="140" y="290" width="120" height="50" as="geometry"/>
                </mxCell>
                <mxCell id="8" value="商品を発注する" style="ellipse;whiteSpace=wrap;html=1;" vertex="1" parent="1">
                    <mxGeometry x="140" y="350" width="120" height="50" as="geometry"/>
                </mxCell>
                <mxCell id="14" style="edgeStyle=none;html=1;entryX=0.225;entryY=0.175;entryDx=0;entryDy=0;entryPerimeter=0;" edge="1" parent="1" target="2">
                    <mxGeometry relative="1" as="geometry">
                        <mxPoint x="50" y="250" as="sourcePoint"/>
                    </mxGeometry>
                </mxCell>
                <mxCell id="15" style="edgeStyle=none;html=1;entryX=0;entryY=0.5;entryDx=0;entryDy=0;" edge="1" parent="1" target="4">
                    <mxGeometry relative="1" as="geometry">
                        <mxPoint x="50" y="250" as="sourcePoint"/>
                    </mxGeometry>
                </mxCell>
                <mxCell id="16" style="edgeStyle=none;html=1;entryX=0;entryY=0.5;entryDx=0;entryDy=0;" edge="1" parent="1" target="6">
                    <mxGeometry relative="1" as="geometry">
                        <mxPoint x="50" y="250" as="sourcePoint"/>
                    </mxGeometry>
                </mxCell>
                <mxCell id="17" style="edgeStyle=none;html=1;entryX=0.225;entryY=0.625;entryDx=0;entryDy=0;entryPerimeter=0;" edge="1" parent="1" target="2">
                    <mxGeometry relative="1" as="geometry">
                        <mxPoint x="50" y="250" as="sourcePoint"/>
                    </mxGeometry>
                </mxCell>
                <mxCell id="18" style="edgeStyle=none;html=1;entryX=0;entryY=0.5;entryDx=0;entryDy=0;" edge="1" parent="1" target="8">
                    <mxGeometry relative="1" as="geometry">
                        <mxPoint x="50" y="250" as="sourcePoint"/>
                    </mxGeometry>
                </mxCell>
                <mxCell id="9" value="管理者" style="shape=umlActor;verticalLabelPosition=bottom;verticalAlign=top;html=1;outlineConnect=0;" vertex="1" parent="1">
                    <mxGeometry x="20" y="220" width="30" height="60" as="geometry"/>
                </mxCell>
                <mxCell id="11" style="edgeStyle=none;html=1;exitX=0.5;exitY=0.5;exitDx=0;exitDy=0;exitPerimeter=0;entryX=1;entryY=0.5;entryDx=0;entryDy=0;" edge="1" parent="1" source="10" target="3">
                    <mxGeometry relative="1" as="geometry"/>
                </mxCell>
                <mxCell id="12" style="edgeStyle=none;html=1;exitX=0.5;exitY=0.5;exitDx=0;exitDy=0;exitPerimeter=0;entryX=1;entryY=0.5;entryDx=0;entryDy=0;" edge="1" parent="1" source="10" target="4">
                    <mxGeometry relative="1" as="geometry"/>
                </mxCell>
                <mxCell id="13" style="edgeStyle=none;html=1;exitX=0.5;exitY=0.5;exitDx=0;exitDy=0;exitPerimeter=0;entryX=1;entryY=0.5;entryDx=0;entryDy=0;" edge="1" parent="1" source="10" target="6">
                    <mxGeometry relative="1" as="geometry"/>
                </mxCell>
                <mxCell id="10" value="購入者" style="shape=umlActor;verticalLabelPosition=bottom;verticalAlign=top;html=1;outlineConnect=0;" vertex="1" parent="1">
                    <mxGeometry x="330" y="150" width="30" height="60" as="geometry"/>
                </mxCell>
            </root>
        </mxGraphModel>
    </diagram>
    <diagram id="TaPNVXtaNxKxZGUr2vCf" name="問題②">
        <mxGraphModel dx="604" dy="547" grid="1" gridSize="10" guides="1" tooltips="1" connect="1" arrows="1" fold="1" page="1" pageScale="1" pageWidth="827" pageHeight="1169" math="0" shadow="0">
            <root>
                <mxCell id="UhzMuiFJ6ZAe-nvVgQ77-0"/>
                <mxCell id="UhzMuiFJ6ZAe-nvVgQ77-1" parent="UhzMuiFJ6ZAe-nvVgQ77-0"/>
                <mxCell id="UhzMuiFJ6ZAe-nvVgQ77-15" value="areas" style="shape=table;startSize=30;container=1;collapsible=1;childLayout=tableLayout;fixedRows=1;rowLines=0;fontStyle=1;align=center;resizeLast=1;" vertex="1" parent="UhzMuiFJ6ZAe-nvVgQ77-1">
                    <mxGeometry x="220" y="80" width="140" height="90" as="geometry"/>
                </mxCell>
                <mxCell id="UhzMuiFJ6ZAe-nvVgQ77-16" value="" style="shape=partialRectangle;collapsible=0;dropTarget=0;pointerEvents=0;fillColor=none;top=0;left=0;bottom=1;right=0;points=[[0,0.5],[1,0.5]];portConstraint=eastwest;" vertex="1" parent="UhzMuiFJ6ZAe-nvVgQ77-15">
                    <mxGeometry y="30" width="140" height="30" as="geometry"/>
                </mxCell>
                <mxCell id="UhzMuiFJ6ZAe-nvVgQ77-17" value="PK" style="shape=partialRectangle;connectable=0;fillColor=none;top=0;left=0;bottom=0;right=0;fontStyle=1;overflow=hidden;" vertex="1" parent="UhzMuiFJ6ZAe-nvVgQ77-16">
                    <mxGeometry width="30" height="30" as="geometry"/>
                </mxCell>
                <mxCell id="UhzMuiFJ6ZAe-nvVgQ77-18" value="ID" style="shape=partialRectangle;connectable=0;fillColor=none;top=0;left=0;bottom=0;right=0;align=left;spacingLeft=6;fontStyle=5;overflow=hidden;" vertex="1" parent="UhzMuiFJ6ZAe-nvVgQ77-16">
                    <mxGeometry x="30" width="110" height="30" as="geometry"/>
                </mxCell>
                <mxCell id="UhzMuiFJ6ZAe-nvVgQ77-19" value="" style="shape=partialRectangle;collapsible=0;dropTarget=0;pointerEvents=0;fillColor=none;top=0;left=0;bottom=0;right=0;points=[[0,0.5],[1,0.5]];portConstraint=eastwest;" vertex="1" parent="UhzMuiFJ6ZAe-nvVgQ77-15">
                    <mxGeometry y="60" width="140" height="30" as="geometry"/>
                </mxCell>
                <mxCell id="UhzMuiFJ6ZAe-nvVgQ77-20" value="" style="shape=partialRectangle;connectable=0;fillColor=none;top=0;left=0;bottom=0;right=0;editable=1;overflow=hidden;" vertex="1" parent="UhzMuiFJ6ZAe-nvVgQ77-19">
                    <mxGeometry width="30" height="30" as="geometry"/>
                </mxCell>
                <mxCell id="UhzMuiFJ6ZAe-nvVgQ77-21" value="name" style="shape=partialRectangle;connectable=0;fillColor=none;top=0;left=0;bottom=0;right=0;align=left;spacingLeft=6;overflow=hidden;" vertex="1" parent="UhzMuiFJ6ZAe-nvVgQ77-19">
                    <mxGeometry x="30" width="110" height="30" as="geometry"/>
                </mxCell>
                <mxCell id="UhzMuiFJ6ZAe-nvVgQ77-22" value="users" style="shape=table;startSize=30;container=1;collapsible=1;childLayout=tableLayout;fixedRows=1;rowLines=0;fontStyle=1;align=center;resizeLast=1;" vertex="1" parent="UhzMuiFJ6ZAe-nvVgQ77-1">
                    <mxGeometry x="30" y="80" width="130" height="150" as="geometry"/>
                </mxCell>
                <mxCell id="UhzMuiFJ6ZAe-nvVgQ77-23" value="" style="shape=partialRectangle;collapsible=0;dropTarget=0;pointerEvents=0;fillColor=none;top=0;left=0;bottom=1;right=0;points=[[0,0.5],[1,0.5]];portConstraint=eastwest;" vertex="1" parent="UhzMuiFJ6ZAe-nvVgQ77-22">
                    <mxGeometry y="30" width="130" height="30" as="geometry"/>
                </mxCell>
                <mxCell id="UhzMuiFJ6ZAe-nvVgQ77-24" value="PK" style="shape=partialRectangle;connectable=0;fillColor=none;top=0;left=0;bottom=0;right=0;fontStyle=1;overflow=hidden;" vertex="1" parent="UhzMuiFJ6ZAe-nvVgQ77-23">
                    <mxGeometry width="30" height="30" as="geometry"/>
                </mxCell>
                <mxCell id="UhzMuiFJ6ZAe-nvVgQ77-25" value="ID" style="shape=partialRectangle;connectable=0;fillColor=none;top=0;left=0;bottom=0;right=0;align=left;spacingLeft=6;fontStyle=5;overflow=hidden;" vertex="1" parent="UhzMuiFJ6ZAe-nvVgQ77-23">
                    <mxGeometry x="30" width="100" height="30" as="geometry"/>
                </mxCell>
                <mxCell id="UhzMuiFJ6ZAe-nvVgQ77-26" value="" style="shape=partialRectangle;collapsible=0;dropTarget=0;pointerEvents=0;fillColor=none;top=0;left=0;bottom=0;right=0;points=[[0,0.5],[1,0.5]];portConstraint=eastwest;" vertex="1" parent="UhzMuiFJ6ZAe-nvVgQ77-22">
                    <mxGeometry y="60" width="130" height="30" as="geometry"/>
                </mxCell>
                <mxCell id="UhzMuiFJ6ZAe-nvVgQ77-27" value="" style="shape=partialRectangle;connectable=0;fillColor=none;top=0;left=0;bottom=0;right=0;editable=1;overflow=hidden;" vertex="1" parent="UhzMuiFJ6ZAe-nvVgQ77-26">
                    <mxGeometry width="30" height="30" as="geometry"/>
                </mxCell>
                <mxCell id="UhzMuiFJ6ZAe-nvVgQ77-28" value="name" style="shape=partialRectangle;connectable=0;fillColor=none;top=0;left=0;bottom=0;right=0;align=left;spacingLeft=6;overflow=hidden;" vertex="1" parent="UhzMuiFJ6ZAe-nvVgQ77-26">
                    <mxGeometry x="30" width="100" height="30" as="geometry"/>
                </mxCell>
                <mxCell id="UhzMuiFJ6ZAe-nvVgQ77-29" value="" style="shape=partialRectangle;collapsible=0;dropTarget=0;pointerEvents=0;fillColor=none;top=0;left=0;bottom=0;right=0;points=[[0,0.5],[1,0.5]];portConstraint=eastwest;" vertex="1" parent="UhzMuiFJ6ZAe-nvVgQ77-22">
                    <mxGeometry y="90" width="130" height="30" as="geometry"/>
                </mxCell>
                <mxCell id="UhzMuiFJ6ZAe-nvVgQ77-30" value="" style="shape=partialRectangle;connectable=0;fillColor=none;top=0;left=0;bottom=0;right=0;editable=1;overflow=hidden;" vertex="1" parent="UhzMuiFJ6ZAe-nvVgQ77-29">
                    <mxGeometry width="30" height="30" as="geometry"/>
                </mxCell>
                <mxCell id="UhzMuiFJ6ZAe-nvVgQ77-31" value="address" style="shape=partialRectangle;connectable=0;fillColor=none;top=0;left=0;bottom=0;right=0;align=left;spacingLeft=6;overflow=hidden;" vertex="1" parent="UhzMuiFJ6ZAe-nvVgQ77-29">
                    <mxGeometry x="30" width="100" height="30" as="geometry"/>
                </mxCell>
                <mxCell id="UhzMuiFJ6ZAe-nvVgQ77-32" value="area_id" style="shape=partialRectangle;connectable=0;fillColor=none;top=0;left=0;bottom=0;right=0;align=left;spacingLeft=6;overflow=hidden;" vertex="1" parent="UhzMuiFJ6ZAe-nvVgQ77-1">
                    <mxGeometry x="60" y="200" width="100" height="30" as="geometry"/>
                </mxCell>
                <mxCell id="UhzMuiFJ6ZAe-nvVgQ77-33" value="workers_areas" style="shape=table;startSize=30;container=1;collapsible=1;childLayout=tableLayout;fixedRows=1;rowLines=0;fontStyle=1;align=center;resizeLast=1;" vertex="1" parent="UhzMuiFJ6ZAe-nvVgQ77-1">
                    <mxGeometry x="390" y="200" width="180" height="130" as="geometry"/>
                </mxCell>
                <mxCell id="UhzMuiFJ6ZAe-nvVgQ77-34" value="" style="shape=partialRectangle;collapsible=0;dropTarget=0;pointerEvents=0;fillColor=none;top=0;left=0;bottom=1;right=0;points=[[0,0.5],[1,0.5]];portConstraint=eastwest;" vertex="1" parent="UhzMuiFJ6ZAe-nvVgQ77-33">
                    <mxGeometry y="30" width="180" height="30" as="geometry"/>
                </mxCell>
                <mxCell id="UhzMuiFJ6ZAe-nvVgQ77-35" value="PK" style="shape=partialRectangle;connectable=0;fillColor=none;top=0;left=0;bottom=0;right=0;fontStyle=1;overflow=hidden;" vertex="1" parent="UhzMuiFJ6ZAe-nvVgQ77-34">
                    <mxGeometry width="30" height="30" as="geometry"/>
                </mxCell>
                <mxCell id="UhzMuiFJ6ZAe-nvVgQ77-36" value="ID" style="shape=partialRectangle;connectable=0;fillColor=none;top=0;left=0;bottom=0;right=0;align=left;spacingLeft=6;fontStyle=5;overflow=hidden;" vertex="1" parent="UhzMuiFJ6ZAe-nvVgQ77-34">
                    <mxGeometry x="30" width="150" height="30" as="geometry"/>
                </mxCell>
                <mxCell id="UhzMuiFJ6ZAe-nvVgQ77-37" value="" style="shape=partialRectangle;collapsible=0;dropTarget=0;pointerEvents=0;fillColor=none;top=0;left=0;bottom=0;right=0;points=[[0,0.5],[1,0.5]];portConstraint=eastwest;" vertex="1" parent="UhzMuiFJ6ZAe-nvVgQ77-33">
                    <mxGeometry y="60" width="180" height="30" as="geometry"/>
                </mxCell>
                <mxCell id="UhzMuiFJ6ZAe-nvVgQ77-38" value="" style="shape=partialRectangle;connectable=0;fillColor=none;top=0;left=0;bottom=0;right=0;editable=1;overflow=hidden;" vertex="1" parent="UhzMuiFJ6ZAe-nvVgQ77-37">
                    <mxGeometry width="30" height="30" as="geometry"/>
                </mxCell>
                <mxCell id="UhzMuiFJ6ZAe-nvVgQ77-39" value="areas_id" style="shape=partialRectangle;connectable=0;fillColor=none;top=0;left=0;bottom=0;right=0;align=left;spacingLeft=6;overflow=hidden;" vertex="1" parent="UhzMuiFJ6ZAe-nvVgQ77-37">
                    <mxGeometry x="30" width="150" height="30" as="geometry"/>
                </mxCell>
                <mxCell id="UhzMuiFJ6ZAe-nvVgQ77-40" value="" style="shape=partialRectangle;collapsible=0;dropTarget=0;pointerEvents=0;fillColor=none;top=0;left=0;bottom=0;right=0;points=[[0,0.5],[1,0.5]];portConstraint=eastwest;" vertex="1" parent="UhzMuiFJ6ZAe-nvVgQ77-33">
                    <mxGeometry y="90" width="180" height="30" as="geometry"/>
                </mxCell>
                <mxCell id="UhzMuiFJ6ZAe-nvVgQ77-41" value="" style="shape=partialRectangle;connectable=0;fillColor=none;top=0;left=0;bottom=0;right=0;editable=1;overflow=hidden;" vertex="1" parent="UhzMuiFJ6ZAe-nvVgQ77-40">
                    <mxGeometry width="30" height="30" as="geometry"/>
                </mxCell>
                <mxCell id="UhzMuiFJ6ZAe-nvVgQ77-42" value="workers_id" style="shape=partialRectangle;connectable=0;fillColor=none;top=0;left=0;bottom=0;right=0;align=left;spacingLeft=6;overflow=hidden;" vertex="1" parent="UhzMuiFJ6ZAe-nvVgQ77-40">
                    <mxGeometry x="30" width="150" height="30" as="geometry"/>
                </mxCell>
                <mxCell id="UhzMuiFJ6ZAe-nvVgQ77-43" value="workers" style="shape=table;startSize=30;container=1;collapsible=1;childLayout=tableLayout;fixedRows=1;rowLines=0;fontStyle=1;align=center;resizeLast=1;" vertex="1" parent="UhzMuiFJ6ZAe-nvVgQ77-1">
                    <mxGeometry x="220" y="350" width="140" height="90" as="geometry"/>
                </mxCell>
                <mxCell id="UhzMuiFJ6ZAe-nvVgQ77-44" value="" style="shape=partialRectangle;collapsible=0;dropTarget=0;pointerEvents=0;fillColor=none;top=0;left=0;bottom=1;right=0;points=[[0,0.5],[1,0.5]];portConstraint=eastwest;" vertex="1" parent="UhzMuiFJ6ZAe-nvVgQ77-43">
                    <mxGeometry y="30" width="140" height="30" as="geometry"/>
                </mxCell>
                <mxCell id="UhzMuiFJ6ZAe-nvVgQ77-45" value="PK" style="shape=partialRectangle;connectable=0;fillColor=none;top=0;left=0;bottom=0;right=0;fontStyle=1;overflow=hidden;" vertex="1" parent="UhzMuiFJ6ZAe-nvVgQ77-44">
                    <mxGeometry width="30" height="30" as="geometry"/>
                </mxCell>
                <mxCell id="UhzMuiFJ6ZAe-nvVgQ77-46" value="ID" style="shape=partialRectangle;connectable=0;fillColor=none;top=0;left=0;bottom=0;right=0;align=left;spacingLeft=6;fontStyle=5;overflow=hidden;" vertex="1" parent="UhzMuiFJ6ZAe-nvVgQ77-44">
                    <mxGeometry x="30" width="110" height="30" as="geometry"/>
                </mxCell>
                <mxCell id="UhzMuiFJ6ZAe-nvVgQ77-47" value="" style="shape=partialRectangle;collapsible=0;dropTarget=0;pointerEvents=0;fillColor=none;top=0;left=0;bottom=0;right=0;points=[[0,0.5],[1,0.5]];portConstraint=eastwest;" vertex="1" parent="UhzMuiFJ6ZAe-nvVgQ77-43">
                    <mxGeometry y="60" width="140" height="30" as="geometry"/>
                </mxCell>
                <mxCell id="UhzMuiFJ6ZAe-nvVgQ77-48" value="" style="shape=partialRectangle;connectable=0;fillColor=none;top=0;left=0;bottom=0;right=0;editable=1;overflow=hidden;" vertex="1" parent="UhzMuiFJ6ZAe-nvVgQ77-47">
                    <mxGeometry width="30" height="30" as="geometry"/>
                </mxCell>
                <mxCell id="UhzMuiFJ6ZAe-nvVgQ77-49" value="name" style="shape=partialRectangle;connectable=0;fillColor=none;top=0;left=0;bottom=0;right=0;align=left;spacingLeft=6;overflow=hidden;" vertex="1" parent="UhzMuiFJ6ZAe-nvVgQ77-47">
                    <mxGeometry x="30" width="110" height="30" as="geometry"/>
                </mxCell>
                <mxCell id="UhzMuiFJ6ZAe-nvVgQ77-50" value="orders" style="shape=table;startSize=30;container=1;collapsible=1;childLayout=tableLayout;fixedRows=1;rowLines=0;fontStyle=1;align=center;resizeLast=1;" vertex="1" parent="UhzMuiFJ6ZAe-nvVgQ77-1">
                    <mxGeometry x="30" y="320" width="130" height="190.00000000000023" as="geometry"/>
                </mxCell>
                <mxCell id="UhzMuiFJ6ZAe-nvVgQ77-51" value="" style="shape=partialRectangle;collapsible=0;dropTarget=0;pointerEvents=0;fillColor=none;top=0;left=0;bottom=1;right=0;points=[[0,0.5],[1,0.5]];portConstraint=eastwest;" vertex="1" parent="UhzMuiFJ6ZAe-nvVgQ77-50">
                    <mxGeometry y="30" width="130" height="30" as="geometry"/>
                </mxCell>
                <mxCell id="UhzMuiFJ6ZAe-nvVgQ77-52" value="PK" style="shape=partialRectangle;connectable=0;fillColor=none;top=0;left=0;bottom=0;right=0;fontStyle=1;overflow=hidden;" vertex="1" parent="UhzMuiFJ6ZAe-nvVgQ77-51">
                    <mxGeometry width="30" height="30" as="geometry"/>
                </mxCell>
                <mxCell id="UhzMuiFJ6ZAe-nvVgQ77-53" value="ID" style="shape=partialRectangle;connectable=0;fillColor=none;top=0;left=0;bottom=0;right=0;align=left;spacingLeft=6;fontStyle=5;overflow=hidden;" vertex="1" parent="UhzMuiFJ6ZAe-nvVgQ77-51">
                    <mxGeometry x="30" width="100" height="30" as="geometry"/>
                </mxCell>
                <mxCell id="UhzMuiFJ6ZAe-nvVgQ77-54" value="" style="shape=partialRectangle;collapsible=0;dropTarget=0;pointerEvents=0;fillColor=none;top=0;left=0;bottom=0;right=0;points=[[0,0.5],[1,0.5]];portConstraint=eastwest;" vertex="1" parent="UhzMuiFJ6ZAe-nvVgQ77-50">
                    <mxGeometry y="60" width="130" height="30" as="geometry"/>
                </mxCell>
                <mxCell id="UhzMuiFJ6ZAe-nvVgQ77-55" value="" style="shape=partialRectangle;connectable=0;fillColor=none;top=0;left=0;bottom=0;right=0;editable=1;overflow=hidden;" vertex="1" parent="UhzMuiFJ6ZAe-nvVgQ77-54">
                    <mxGeometry width="30" height="30" as="geometry"/>
                </mxCell>
                <mxCell id="UhzMuiFJ6ZAe-nvVgQ77-56" value="content" style="shape=partialRectangle;connectable=0;fillColor=none;top=0;left=0;bottom=0;right=0;align=left;spacingLeft=6;overflow=hidden;" vertex="1" parent="UhzMuiFJ6ZAe-nvVgQ77-54">
                    <mxGeometry x="30" width="100" height="30" as="geometry"/>
                </mxCell>
                <mxCell id="UhzMuiFJ6ZAe-nvVgQ77-57" value="" style="shape=partialRectangle;collapsible=0;dropTarget=0;pointerEvents=0;fillColor=none;top=0;left=0;bottom=0;right=0;points=[[0,0.5],[1,0.5]];portConstraint=eastwest;" vertex="1" parent="UhzMuiFJ6ZAe-nvVgQ77-50">
                    <mxGeometry y="90" width="130" height="40" as="geometry"/>
                </mxCell>
                <mxCell id="UhzMuiFJ6ZAe-nvVgQ77-58" value="" style="shape=partialRectangle;connectable=0;fillColor=none;top=0;left=0;bottom=0;right=0;editable=1;overflow=hidden;" vertex="1" parent="UhzMuiFJ6ZAe-nvVgQ77-57">
                    <mxGeometry width="30" height="40" as="geometry"/>
                </mxCell>
                <mxCell id="UhzMuiFJ6ZAe-nvVgQ77-59" value="price" style="shape=partialRectangle;connectable=0;fillColor=none;top=0;left=0;bottom=0;right=0;align=left;spacingLeft=6;overflow=hidden;" vertex="1" parent="UhzMuiFJ6ZAe-nvVgQ77-57">
                    <mxGeometry x="30" width="100" height="40" as="geometry"/>
                </mxCell>
                <mxCell id="UhzMuiFJ6ZAe-nvVgQ77-60" value="" style="shape=partialRectangle;collapsible=0;dropTarget=0;pointerEvents=0;fillColor=none;top=0;left=0;bottom=0;right=0;points=[[0,0.5],[1,0.5]];portConstraint=eastwest;" vertex="1" parent="UhzMuiFJ6ZAe-nvVgQ77-50">
                    <mxGeometry y="130" width="130" height="30" as="geometry"/>
                </mxCell>
                <mxCell id="UhzMuiFJ6ZAe-nvVgQ77-61" value="" style="shape=partialRectangle;connectable=0;fillColor=none;top=0;left=0;bottom=0;right=0;editable=1;overflow=hidden;" vertex="1" parent="UhzMuiFJ6ZAe-nvVgQ77-60">
                    <mxGeometry width="30" height="30" as="geometry"/>
                </mxCell>
                <mxCell id="UhzMuiFJ6ZAe-nvVgQ77-62" value="workers_id" style="shape=partialRectangle;connectable=0;fillColor=none;top=0;left=0;bottom=0;right=0;align=left;spacingLeft=6;overflow=hidden;" vertex="1" parent="UhzMuiFJ6ZAe-nvVgQ77-60">
                    <mxGeometry x="30" width="100" height="30" as="geometry"/>
                </mxCell>
                <mxCell id="UhzMuiFJ6ZAe-nvVgQ77-63" value="" style="shape=partialRectangle;collapsible=0;dropTarget=0;pointerEvents=0;fillColor=none;top=0;left=0;bottom=0;right=0;points=[[0,0.5],[1,0.5]];portConstraint=eastwest;" vertex="1" parent="UhzMuiFJ6ZAe-nvVgQ77-1">
                    <mxGeometry x="30" y="480" width="130" height="30" as="geometry"/>
                </mxCell>
                <mxCell id="UhzMuiFJ6ZAe-nvVgQ77-64" value="" style="shape=partialRectangle;connectable=0;fillColor=none;top=0;left=0;bottom=0;right=0;editable=1;overflow=hidden;" vertex="1" parent="UhzMuiFJ6ZAe-nvVgQ77-63">
                    <mxGeometry width="30" height="30" as="geometry"/>
                </mxCell>
                <mxCell id="UhzMuiFJ6ZAe-nvVgQ77-65" value="users_id" style="shape=partialRectangle;connectable=0;fillColor=none;top=0;left=0;bottom=0;right=0;align=left;spacingLeft=6;overflow=hidden;" vertex="1" parent="UhzMuiFJ6ZAe-nvVgQ77-63">
                    <mxGeometry x="30" width="100" height="30" as="geometry"/>
                </mxCell>
                <mxCell id="UhzMuiFJ6ZAe-nvVgQ77-66" value="order_derails" style="shape=table;startSize=30;container=1;collapsible=1;childLayout=tableLayout;fixedRows=1;rowLines=0;fontStyle=1;align=center;resizeLast=1;" vertex="1" parent="UhzMuiFJ6ZAe-nvVgQ77-1">
                    <mxGeometry x="30" y="570" width="130" height="120.00000000000023" as="geometry"/>
                </mxCell>
                <mxCell id="UhzMuiFJ6ZAe-nvVgQ77-67" value="" style="shape=partialRectangle;collapsible=0;dropTarget=0;pointerEvents=0;fillColor=none;top=0;left=0;bottom=1;right=0;points=[[0,0.5],[1,0.5]];portConstraint=eastwest;" vertex="1" parent="UhzMuiFJ6ZAe-nvVgQ77-66">
                    <mxGeometry y="30" width="130" height="30" as="geometry"/>
                </mxCell>
                <mxCell id="UhzMuiFJ6ZAe-nvVgQ77-68" value="PK" style="shape=partialRectangle;connectable=0;fillColor=none;top=0;left=0;bottom=0;right=0;fontStyle=1;overflow=hidden;" vertex="1" parent="UhzMuiFJ6ZAe-nvVgQ77-67">
                    <mxGeometry width="30" height="30" as="geometry"/>
                </mxCell>
                <mxCell id="UhzMuiFJ6ZAe-nvVgQ77-69" value="ID" style="shape=partialRectangle;connectable=0;fillColor=none;top=0;left=0;bottom=0;right=0;align=left;spacingLeft=6;fontStyle=5;overflow=hidden;" vertex="1" parent="UhzMuiFJ6ZAe-nvVgQ77-67">
                    <mxGeometry x="30" width="100" height="30" as="geometry"/>
                </mxCell>
                <mxCell id="UhzMuiFJ6ZAe-nvVgQ77-70" value="" style="shape=partialRectangle;collapsible=0;dropTarget=0;pointerEvents=0;fillColor=none;top=0;left=0;bottom=0;right=0;points=[[0,0.5],[1,0.5]];portConstraint=eastwest;" vertex="1" parent="UhzMuiFJ6ZAe-nvVgQ77-66">
                    <mxGeometry y="60" width="130" height="30" as="geometry"/>
                </mxCell>
                <mxCell id="UhzMuiFJ6ZAe-nvVgQ77-71" value="" style="shape=partialRectangle;connectable=0;fillColor=none;top=0;left=0;bottom=0;right=0;editable=1;overflow=hidden;" vertex="1" parent="UhzMuiFJ6ZAe-nvVgQ77-70">
                    <mxGeometry width="30" height="30" as="geometry"/>
                </mxCell>
                <mxCell id="UhzMuiFJ6ZAe-nvVgQ77-72" value="orders_id" style="shape=partialRectangle;connectable=0;fillColor=none;top=0;left=0;bottom=0;right=0;align=left;spacingLeft=6;overflow=hidden;" vertex="1" parent="UhzMuiFJ6ZAe-nvVgQ77-70">
                    <mxGeometry x="30" width="100" height="30" as="geometry"/>
                </mxCell>
                <mxCell id="UhzMuiFJ6ZAe-nvVgQ77-73" value="" style="shape=partialRectangle;collapsible=0;dropTarget=0;pointerEvents=0;fillColor=none;top=0;left=0;bottom=0;right=0;points=[[0,0.5],[1,0.5]];portConstraint=eastwest;" vertex="1" parent="UhzMuiFJ6ZAe-nvVgQ77-66">
                    <mxGeometry y="90" width="130" height="30" as="geometry"/>
                </mxCell>
                <mxCell id="UhzMuiFJ6ZAe-nvVgQ77-74" value="" style="shape=partialRectangle;connectable=0;fillColor=none;top=0;left=0;bottom=0;right=0;editable=1;overflow=hidden;" vertex="1" parent="UhzMuiFJ6ZAe-nvVgQ77-73">
                    <mxGeometry width="30" height="30" as="geometry"/>
                </mxCell>
                <mxCell id="UhzMuiFJ6ZAe-nvVgQ77-75" value="factories_id" style="shape=partialRectangle;connectable=0;fillColor=none;top=0;left=0;bottom=0;right=0;align=left;spacingLeft=6;overflow=hidden;" vertex="1" parent="UhzMuiFJ6ZAe-nvVgQ77-73">
                    <mxGeometry x="30" width="100" height="30" as="geometry"/>
                </mxCell>
                <mxCell id="UhzMuiFJ6ZAe-nvVgQ77-76" value="factories" style="shape=table;startSize=30;container=1;collapsible=1;childLayout=tableLayout;fixedRows=1;rowLines=0;fontStyle=1;align=center;resizeLast=1;" vertex="1" parent="UhzMuiFJ6ZAe-nvVgQ77-1">
                    <mxGeometry x="240" y="560" width="140" height="150" as="geometry"/>
                </mxCell>
                <mxCell id="UhzMuiFJ6ZAe-nvVgQ77-77" value="" style="shape=partialRectangle;collapsible=0;dropTarget=0;pointerEvents=0;fillColor=none;top=0;left=0;bottom=1;right=0;points=[[0,0.5],[1,0.5]];portConstraint=eastwest;" vertex="1" parent="UhzMuiFJ6ZAe-nvVgQ77-76">
                    <mxGeometry y="30" width="140" height="30" as="geometry"/>
                </mxCell>
                <mxCell id="UhzMuiFJ6ZAe-nvVgQ77-78" value="PK" style="shape=partialRectangle;connectable=0;fillColor=none;top=0;left=0;bottom=0;right=0;fontStyle=1;overflow=hidden;" vertex="1" parent="UhzMuiFJ6ZAe-nvVgQ77-77">
                    <mxGeometry width="30" height="30" as="geometry"/>
                </mxCell>
                <mxCell id="UhzMuiFJ6ZAe-nvVgQ77-79" value="ID" style="shape=partialRectangle;connectable=0;fillColor=none;top=0;left=0;bottom=0;right=0;align=left;spacingLeft=6;fontStyle=5;overflow=hidden;" vertex="1" parent="UhzMuiFJ6ZAe-nvVgQ77-77">
                    <mxGeometry x="30" width="110" height="30" as="geometry"/>
                </mxCell>
                <mxCell id="UhzMuiFJ6ZAe-nvVgQ77-80" value="" style="shape=partialRectangle;collapsible=0;dropTarget=0;pointerEvents=0;fillColor=none;top=0;left=0;bottom=0;right=0;points=[[0,0.5],[1,0.5]];portConstraint=eastwest;" vertex="1" parent="UhzMuiFJ6ZAe-nvVgQ77-76">
                    <mxGeometry y="60" width="140" height="30" as="geometry"/>
                </mxCell>
                <mxCell id="UhzMuiFJ6ZAe-nvVgQ77-81" value="" style="shape=partialRectangle;connectable=0;fillColor=none;top=0;left=0;bottom=0;right=0;editable=1;overflow=hidden;" vertex="1" parent="UhzMuiFJ6ZAe-nvVgQ77-80">
                    <mxGeometry width="30" height="30" as="geometry"/>
                </mxCell>
                <mxCell id="UhzMuiFJ6ZAe-nvVgQ77-82" value="name" style="shape=partialRectangle;connectable=0;fillColor=none;top=0;left=0;bottom=0;right=0;align=left;spacingLeft=6;overflow=hidden;" vertex="1" parent="UhzMuiFJ6ZAe-nvVgQ77-80">
                    <mxGeometry x="30" width="110" height="30" as="geometry"/>
                </mxCell>
                <mxCell id="UhzMuiFJ6ZAe-nvVgQ77-83" value="" style="shape=partialRectangle;collapsible=0;dropTarget=0;pointerEvents=0;fillColor=none;top=0;left=0;bottom=0;right=0;points=[[0,0.5],[1,0.5]];portConstraint=eastwest;" vertex="1" parent="UhzMuiFJ6ZAe-nvVgQ77-76">
                    <mxGeometry y="90" width="140" height="30" as="geometry"/>
                </mxCell>
                <mxCell id="UhzMuiFJ6ZAe-nvVgQ77-84" value="" style="shape=partialRectangle;connectable=0;fillColor=none;top=0;left=0;bottom=0;right=0;editable=1;overflow=hidden;" vertex="1" parent="UhzMuiFJ6ZAe-nvVgQ77-83">
                    <mxGeometry width="30" height="30" as="geometry"/>
                </mxCell>
                <mxCell id="UhzMuiFJ6ZAe-nvVgQ77-85" value="parts" style="shape=partialRectangle;connectable=0;fillColor=none;top=0;left=0;bottom=0;right=0;align=left;spacingLeft=6;overflow=hidden;" vertex="1" parent="UhzMuiFJ6ZAe-nvVgQ77-83">
                    <mxGeometry x="30" width="110" height="30" as="geometry"/>
                </mxCell>
                <mxCell id="UhzMuiFJ6ZAe-nvVgQ77-86" value="" style="shape=partialRectangle;collapsible=0;dropTarget=0;pointerEvents=0;fillColor=none;top=0;left=0;bottom=0;right=0;points=[[0,0.5],[1,0.5]];portConstraint=eastwest;" vertex="1" parent="UhzMuiFJ6ZAe-nvVgQ77-76">
                    <mxGeometry y="120" width="140" height="30" as="geometry"/>
                </mxCell>
                <mxCell id="UhzMuiFJ6ZAe-nvVgQ77-87" value="" style="shape=partialRectangle;connectable=0;fillColor=none;top=0;left=0;bottom=0;right=0;editable=1;overflow=hidden;" vertex="1" parent="UhzMuiFJ6ZAe-nvVgQ77-86">
                    <mxGeometry width="30" height="30" as="geometry"/>
                </mxCell>
                <mxCell id="UhzMuiFJ6ZAe-nvVgQ77-88" value="order_derails_id" style="shape=partialRectangle;connectable=0;fillColor=none;top=0;left=0;bottom=0;right=0;align=left;spacingLeft=6;overflow=hidden;" vertex="1" parent="UhzMuiFJ6ZAe-nvVgQ77-86">
                    <mxGeometry x="30" width="110" height="30" as="geometry"/>
                </mxCell>
            </root>
        </mxGraphModel>
    </diagram>
</mxfile>